<svg xmlns="http://www.w3.org/2000/svg" xmlns:xlink="http://www.w3.org/1999/xlink" version="1.1" x="0px" y="0px" viewBox="0 0 100 125" enable-background="new 0 0 100 100" xml:space="preserve"><path d="M91.485,60.111c0.008-0.166,0.006-0.329-0.005-0.489c-0.003-0.048-0.004-0.096-0.009-0.144  c-0.021-0.201-0.054-0.398-0.103-0.589c-0.009-0.034-0.021-0.066-0.03-0.099c-0.045-0.161-0.099-0.318-0.162-0.472  c-0.02-0.048-0.04-0.097-0.062-0.144c-0.074-0.165-0.157-0.326-0.251-0.483c-0.009-0.015-0.016-0.031-0.025-0.046  c-0.107-0.174-0.228-0.343-0.357-0.507c-0.027-0.034-0.056-0.067-0.083-0.1c-0.111-0.134-0.229-0.265-0.354-0.392  c-0.03-0.031-0.06-0.062-0.091-0.093c-2.707-2.65-8.32-3.693-11.42-2.653c8.151-2.733-5.89-17.715-12.941-9.578  c4.84-14.951-25.953-22.264-25.696-5.844c-7.867-10.499-25.818,3.898-18.723,14.351c-1.191-1.754-3.753-1.998-6.265-1.301  c0,0,0-0.001,0-0.001c-0.006,0.002-0.012,0.004-0.018,0.006c-0.7,0.196-1.394,0.464-2.055,0.794  c-0.025,0.013-0.05,0.026-0.075,0.038c-0.189,0.096-0.374,0.197-0.556,0.303c-0.035,0.021-0.07,0.041-0.106,0.062  c-0.177,0.105-0.35,0.215-0.519,0.329c-0.028,0.019-0.057,0.037-0.085,0.056c-0.391,0.27-0.758,0.561-1.091,0.872  c-0.024,0.022-0.045,0.045-0.068,0.067c-0.134,0.128-0.263,0.26-0.385,0.394c-0.042,0.046-0.081,0.093-0.122,0.14  c-0.099,0.115-0.194,0.232-0.284,0.351c-0.041,0.054-0.081,0.108-0.12,0.164c-0.085,0.121-0.164,0.243-0.238,0.367  c-0.031,0.052-0.064,0.102-0.093,0.154c-0.091,0.163-0.173,0.328-0.244,0.496c-0.006,0.014-0.014,0.027-0.019,0.04  c-0.075,0.181-0.136,0.365-0.186,0.552c-0.015,0.054-0.023,0.11-0.036,0.165c-0.03,0.133-0.055,0.266-0.072,0.401  c-0.008,0.069-0.013,0.138-0.017,0.207c-0.009,0.125-0.011,0.251-0.007,0.378c0.002,0.071,0.005,0.142,0.011,0.214  c0.012,0.134,0.033,0.269,0.059,0.404c0.012,0.063,0.02,0.126,0.036,0.189c0.048,0.198,0.109,0.396,0.19,0.596  c3.204,7.839,15.786,3.739,21.341,2.344c3.044,14.299,31.938,10.046,38.414,0.618c4.553,3.208,20.787,7.665,22.814-1.287  c0.05-0.222,0.079-0.438,0.097-0.651C91.48,60.228,91.482,60.17,91.485,60.111z"/><text x="0" y="115" fill="#000000" font-size="5px" font-weight="bold" font-family="'Helvetica Neue', Helvetica, Arial-Unicode, Arial, Sans-serif">Created by Jacqueline Fernandes</text><text x="0" y="120" fill="#000000" font-size="5px" font-weight="bold" font-family="'Helvetica Neue', Helvetica, Arial-Unicode, Arial, Sans-serif">from the Noun Project</text></svg>