<svg xmlns="http://www.w3.org/2000/svg" xmlns:xlink="http://www.w3.org/1999/xlink" version="1.1" x="0px" y="0px" viewBox="0 0 80 100" enable-background="new 0 0 80 80" xml:space="preserve"><g><path d="M40,21.19c-10.37,0-18.81,8.44-18.81,18.81S29.63,58.81,40,58.81S58.81,50.37,58.81,40S50.37,21.19,40,21.19z"/><path d="M40.001,59.942c-0.829,0-1.5,0.672-1.5,1.5v9.06c0,0.828,0.671,1.5,1.5,1.5c0.828,0,1.499-0.672,1.499-1.5v-9.06   C41.5,60.614,40.829,59.942,40.001,59.942z"/><path d="M40.001,20.058c0.828,0,1.499-0.671,1.499-1.5v-9.06c0-0.829-0.671-1.5-1.499-1.5c-0.829,0-1.5,0.671-1.5,1.5v9.06   C38.501,19.386,39.172,20.058,40.001,20.058z"/><path d="M70.502,38.5h-9.061c-0.828,0-1.5,0.671-1.5,1.5s0.672,1.5,1.5,1.5h9.061c0.828,0,1.5-0.671,1.5-1.5   S71.33,38.5,70.502,38.5z"/><path d="M20.058,40c0-0.829-0.671-1.5-1.5-1.5H9.499c-0.829,0-1.5,0.671-1.5,1.5s0.671,1.5,1.5,1.5h9.059   C19.387,41.5,20.058,40.829,20.058,40z"/><path d="M56.219,54.099c-0.586-0.586-1.535-0.586-2.121,0s-0.586,1.535,0,2.121l6.412,6.412c0.293,0.293,0.678,0.439,1.061,0.439   c0.385,0,0.768-0.146,1.061-0.439c0.586-0.586,0.586-1.535,0-2.121L56.219,54.099z"/><path d="M23.78,25.901c0.293,0.293,0.677,0.439,1.061,0.439s0.768-0.146,1.061-0.439c0.586-0.585,0.586-1.536,0-2.121l-6.412-6.412   c-0.586-0.586-1.535-0.586-2.121,0c-0.586,0.585-0.586,1.536,0,2.121L23.78,25.901z"/><path d="M23.78,54.099l-6.412,6.412c-0.586,0.586-0.586,1.535,0,2.121c0.293,0.293,0.678,0.439,1.061,0.439   c0.385,0,0.768-0.146,1.061-0.439l6.412-6.412c0.586-0.586,0.586-1.535,0-2.121S24.366,53.513,23.78,54.099z"/><path d="M55.158,26.34c0.385,0,0.768-0.146,1.061-0.439l6.412-6.412c0.586-0.585,0.586-1.535,0-2.121s-1.535-0.586-2.121,0   l-6.412,6.412c-0.586,0.585-0.586,1.535,0,2.121C54.391,26.194,54.775,26.34,55.158,26.34z"/></g><text x="0" y="95" fill="#000000" font-size="5px" font-weight="bold" font-family="'Helvetica Neue', Helvetica, Arial-Unicode, Arial, Sans-serif">Created by Icon Lauk</text><text x="0" y="100" fill="#000000" font-size="5px" font-weight="bold" font-family="'Helvetica Neue', Helvetica, Arial-Unicode, Arial, Sans-serif">from the Noun Project</text></svg>