<svg xmlns="http://www.w3.org/2000/svg" data-name="Layer 1" viewBox="0 0 100 125" x="0px" y="0px"><title>a</title><path d="M86.07111,75.051a9.3794,9.3794,0,0,0-1.18268.08338A15.50022,15.50022,0,0,0,68.30072,62.92145c-1.46454-12.90473-11.8183-22.90857-24.38208-22.90857-10.95911,0-20.23865,7.61169-23.403,18.12054A17.30145,17.30145,0,0,0,5,75.051c0,9.425,7.941,17.0655,17.73669,17.0655A18.14709,18.14709,0,0,0,32.64313,89.208a23.33582,23.33582,0,0,0,11.27551,2.90845,23.572,23.572,0,0,0,14.96-5.39338,15.58323,15.58323,0,0,0,8.32471,4.94318,15.02375,15.02375,0,0,0,12.17114-2.45172,9.07919,9.07919,0,0,0,6.69666,2.90192,8.54154,8.54154,0,1,0,0-17.0655Z"/><path d="M54.02686,7.95294a2.72609,2.72609,0,0,0-2.04932,3.26593L53.13391,16.268A2.72634,2.72634,0,0,0,58.449,15.05072l-1.15631-5.04913A2.726,2.726,0,0,0,54.02686,7.95294Z"/><path d="M79.79291,12.311a2.7262,2.7262,0,0,0-3.758.8606L73.28174,17.56a2.72606,2.72606,0,1,0,4.61847,2.89746L80.65338,16.069A2.72607,2.72607,0,0,0,79.79291,12.311Z"/><path d="M94.9306,33.61279a2.72611,2.72611,0,0,0-3.26593-2.04931L86.61493,32.72a2.72636,2.72636,0,0,0,1.21722,5.31513l5.04975-1.1565A2.726,2.726,0,0,0,94.9306,33.61279Z"/><path d="M85.32312,52.86884A2.72606,2.72606,0,1,0,82.426,57.48755L86.8147,60.2403a2.72606,2.72606,0,1,0,2.89709-4.61872Z"/><path d="M36.48169,22.2301a2.72607,2.72607,0,1,0-2.8971,4.61872l4.38868,2.7528a2.72606,2.72606,0,1,0,2.89709-4.61871Z"/><path d="M71.47,54.84778a16.79153,16.79153,0,1,0-25.45361-19.742C57.56134,35.96191,67.40253,43.81348,71.47,54.84778Z"/><text x="0" y="115" fill="#000000" font-size="5px" font-weight="bold" font-family="'Helvetica Neue', Helvetica, Arial-Unicode, Arial, Sans-serif">Created by Markus</text><text x="0" y="120" fill="#000000" font-size="5px" font-weight="bold" font-family="'Helvetica Neue', Helvetica, Arial-Unicode, Arial, Sans-serif">from the Noun Project</text></svg>